<svg width="102" height="16" viewBox="0 0 102 16" fill="none" xmlns="http://www.w3.org/2000/svg">
<mask id="mask0_1572_7272" style="mask-type:alpha" maskUnits="userSpaceOnUse" x="0" y="0" width="16" height="16">
<circle cx="8" cy="8" r="8" fill="#D9D9D9"/>
</mask>
<g mask="url(#mask0_1572_7272)">
<path d="M16 8C16 8.75021 15.8967 9.4763 15.7036 10.1648C14.7595 13.5313 11.6681 16 8 16C3.58172 16 0 12.4183 0 8C0 3.58172 3.58172 0 8 0C11.6689 0 14.7609 2.46972 15.7043 5.83734C16 6.75 16 7.25058 16 8Z" fill="#1A491A"/>
<path d="M16 8C16 8.75021 15.8967 9.4763 15.7036 10.1648C14.7595 13.5313 11.6681 16 8 16C3.58172 16 0 12.4183 0 8C0 3.58172 3.58172 0 8 0C11.6689 0 14.7609 2.46972 15.7043 5.83734C16 6.75 16 7.25058 16 8Z" fill="#1A491A"/>
<path d="M9.25336 6.74663C8.47948 5.97275 8.04935 4.94855 8.03525 3.85913H7.96474C7.95064 4.95032 7.52051 5.97452 6.74663 6.74663C5.97275 7.52051 4.94855 7.95064 3.85913 7.96474V8.03702C4.95032 8.05112 5.97451 8.48125 6.74663 9.25513C7.52227 10.0308 7.9524 11.0585 7.96474 12.1514H8.03702C8.04935 11.0585 8.47948 10.0308 9.25512 9.25513C10.029 8.48125 11.0532 8.05112 12.1426 8.03702V7.96474C11.0514 7.95064 10.0272 7.52051 9.25336 6.74663Z" fill="white"/>
<path d="M17.52 6.74663C16.7461 5.97275 16.316 4.94855 16.3019 3.85913H16.2314C16.2223 4.56296 16.0401 5.23892 15.7043 5.83734C15.5194 6.16668 15.288 6.47254 15.0133 6.74663C14.2394 7.52051 13.2152 7.95064 12.1258 7.96474V8.03702C13.217 8.05112 14.2412 8.48125 15.0133 9.25513C15.2877 9.52956 15.5189 9.83556 15.7036 10.1648C16.041 10.7662 16.2234 11.4452 16.2314 12.1514H16.3037C16.316 11.0585 16.7461 10.0308 17.5218 9.25513C18.2957 8.48125 19.3199 8.05112 20.4093 8.03702V7.96474C19.3181 7.95064 18.2939 7.52051 17.52 6.74663Z" fill="white"/>
<path d="M20.5342 8.03711C20.5341 8.10539 20.4794 8.1611 20.4111 8.16211C19.3542 8.17579 18.3611 8.59297 17.6104 9.34375C16.8579 10.0962 16.4407 11.0929 16.4287 12.1533C16.4277 12.2216 16.372 12.2763 16.3037 12.2764H16.2314C16.1631 12.2764 16.1075 12.2216 16.1064 12.1533C16.0999 11.5726 15.9703 11.0115 15.7324 10.499C14.6782 13.7634 11.6155 16.125 8 16.125C3.51269 16.125 -0.125 12.4873 -0.125 8C-0.125 3.51269 3.51269 -0.125 8 -0.125C11.6159 -0.125 14.6795 2.237 15.7334 5.50195C15.9696 4.9926 16.099 4.43526 16.1064 3.85742L16.1162 3.80957C16.1354 3.76507 16.18 3.73438 16.2314 3.73438H16.3018L16.3506 3.74414C16.3949 3.76291 16.4261 3.80634 16.4268 3.85742C16.4404 4.91431 16.8576 5.90742 17.6084 6.6582C18.3592 7.40897 19.3524 7.82616 20.4111 7.83984C20.4794 7.84085 20.5342 7.89652 20.5342 7.96484V8.03711Z" stroke="white" stroke-width="0.25" stroke-linejoin="round"/>
</g>
<path d="M27.6101 13.75C26.5149 13.75 25.5761 13.557 24.7938 13.1711C24.0219 12.7851 23.4273 12.1854 23.0101 11.3718C22.6033 10.5477 22.3999 9.489 22.3999 8.19558C22.3999 6.3076 22.8589 4.90986 23.7768 4.00238C24.6947 3.0949 25.9725 2.64116 27.6101 2.64116C28.4967 2.64116 29.2947 2.7924 30.004 3.0949C30.7237 3.39739 31.2922 3.85635 31.7094 4.47177C32.1371 5.07676 32.3509 5.84864 32.3509 6.78742H30.27C30.27 6.26587 30.1552 5.82778 29.9258 5.47313C29.7067 5.10805 29.399 4.83163 29.0026 4.64388C28.6063 4.45612 28.1525 4.36225 27.6414 4.36225C26.9321 4.36225 26.3428 4.50306 25.8734 4.78469C25.404 5.0559 25.0546 5.4627 24.8251 6.0051C24.606 6.54751 24.4965 7.22029 24.4965 8.02347V8.36769C24.4965 9.18129 24.606 9.8593 24.8251 10.4017C25.0546 10.9441 25.3988 11.3509 25.8577 11.6221C26.3271 11.8933 26.9217 12.0289 27.6414 12.0289C28.1838 12.0289 28.6584 11.9402 29.0652 11.7629C29.472 11.5752 29.7849 11.304 30.004 10.9493C30.2335 10.5842 30.3482 10.1409 30.3482 9.61939H32.3509C32.3509 10.5582 32.1423 11.3353 31.7251 11.9507C31.3078 12.5557 30.7394 13.0094 30.0196 13.3119C29.3103 13.604 28.5072 13.75 27.6101 13.75Z" fill="#036603"/>
<path d="M34.3021 13.5622V5.33231H35.898L36.0544 6.63095H36.164C36.2683 6.37018 36.3934 6.13027 36.5395 5.91122C36.6959 5.68175 36.8941 5.49921 37.134 5.36361C37.3739 5.21757 37.666 5.14456 38.0102 5.14456C38.1771 5.14456 38.3284 5.1602 38.464 5.1915C38.61 5.22279 38.7195 5.25408 38.7925 5.28537V7.08469H38.2136C37.8903 7.08469 37.6034 7.13163 37.3531 7.22551C37.1027 7.30896 36.8889 7.44456 36.7116 7.63231C36.5447 7.82007 36.4195 8.05476 36.3361 8.33639C36.2526 8.61803 36.2109 8.9466 36.2109 9.32211V13.5622H34.3021Z" fill="#036603"/>
<path d="M43.667 13.75C42.7908 13.75 42.0606 13.5988 41.4765 13.2963C40.8924 12.9833 40.4543 12.5087 40.1622 11.8724C39.8701 11.2362 39.7241 10.4278 39.7241 9.44728C39.7241 8.45635 39.8701 7.64796 40.1622 7.02211C40.4543 6.38583 40.8924 5.91644 41.4765 5.61395C42.0606 5.30102 42.7908 5.14456 43.667 5.14456C44.4597 5.14456 45.1221 5.2958 45.654 5.5983C46.1964 5.89036 46.6032 6.3441 46.8744 6.95952C47.1456 7.57494 47.2812 8.3729 47.2812 9.3534V9.91667H41.6799C41.7007 10.4278 41.779 10.8607 41.9146 11.2153C42.0502 11.5595 42.2588 11.8203 42.5404 11.9976C42.8325 12.1645 43.2132 12.248 43.6826 12.248C43.9225 12.248 44.1468 12.2167 44.3554 12.1541C44.564 12.0915 44.7465 11.9976 44.903 11.8724C45.0595 11.7368 45.1794 11.57 45.2629 11.3718C45.3568 11.1736 45.4037 10.9441 45.4037 10.6833H47.2812C47.2812 11.2049 47.1874 11.6586 46.9996 12.0446C46.8223 12.4305 46.5667 12.7486 46.2329 12.999C45.9096 13.2493 45.5289 13.4371 45.0908 13.5622C44.6527 13.6874 44.1781 13.75 43.667 13.75ZM41.7112 8.57109H45.2942C45.2942 8.22687 45.2524 7.93481 45.169 7.6949C45.096 7.45499 44.9865 7.2568 44.8404 7.10034C44.7048 6.94388 44.5379 6.83435 44.3397 6.77177C44.1416 6.69875 43.9173 6.66225 43.667 6.66225C43.2602 6.66225 42.9159 6.73005 42.6343 6.86565C42.3631 7.00125 42.1545 7.20986 42.0085 7.4915C41.8624 7.77313 41.7633 8.13299 41.7112 8.57109Z" fill="#036603"/>
<path d="M52.0776 13.75C51.41 13.75 50.8311 13.5988 50.3408 13.2963C49.8506 12.9938 49.4698 12.5244 49.1986 11.8881C48.9379 11.2518 48.8075 10.433 48.8075 9.43163C48.8075 8.4407 48.9431 7.63231 49.2143 7.00646C49.4855 6.37018 49.861 5.90079 50.3408 5.5983C50.8206 5.2958 51.363 5.14456 51.968 5.14456C52.3435 5.14456 52.6878 5.18628 53.0007 5.26973C53.3136 5.35317 53.59 5.48356 53.8299 5.66088C54.0698 5.82778 54.2732 6.03639 54.4401 6.28673H54.534V2.25H56.4429V13.5622H54.8626L54.7061 12.467H54.5966C54.3358 12.8947 53.9812 13.218 53.5327 13.4371C53.0946 13.6457 52.6095 13.75 52.0776 13.75ZM52.6721 12.1071C53.1102 12.1071 53.4649 12.0081 53.7361 11.8099C54.0073 11.6117 54.2054 11.3248 54.3306 10.9493C54.4662 10.5738 54.534 10.1149 54.534 9.57245V9.36905C54.534 8.96225 54.4975 8.59717 54.4245 8.27381C54.3515 7.95045 54.2367 7.67925 54.0803 7.4602C53.9342 7.24116 53.7413 7.07426 53.5014 6.95952C53.2719 6.84478 52.9955 6.78742 52.6721 6.78742C52.2027 6.78742 51.8272 6.88129 51.5456 7.06905C51.2744 7.24637 51.0762 7.528 50.951 7.91395C50.8363 8.28946 50.7789 8.76928 50.7789 9.3534V9.57245C50.7789 10.1461 50.8363 10.6207 50.951 10.9963C51.0762 11.3718 51.2744 11.6534 51.5456 11.8412C51.8272 12.0185 52.2027 12.1071 52.6721 12.1071Z" fill="#036603"/>
<path d="M58.7866 4.06497V2.25H60.6955V4.06497H58.7866ZM58.7866 13.5622V5.33231H60.6955V13.5622H58.7866Z" fill="#036603"/>
<path d="M65.2165 13.75C64.7054 13.75 64.3038 13.6509 64.0117 13.4527C63.7197 13.2441 63.5111 12.9833 63.3859 12.6704C63.2711 12.3471 63.2138 12.0185 63.2138 11.6847V6.89694H62.2281V5.33231H63.2607L63.6049 3.03231H65.1226V5.33231H66.5464V6.89694H65.1226V11.4969C65.1226 11.716 65.18 11.8881 65.2947 12.0133C65.4095 12.128 65.5816 12.1854 65.8111 12.1854H66.5464V13.4997C66.4421 13.5414 66.3117 13.5779 66.1553 13.6092C66.0092 13.6509 65.8528 13.6822 65.6859 13.7031C65.519 13.7344 65.3625 13.75 65.2165 13.75Z" fill="#036603"/>
<path d="M72.4522 13.75C71.8576 13.75 71.2891 13.6874 70.7467 13.5622C70.2043 13.4266 69.7245 13.2232 69.3073 12.952C68.89 12.6704 68.5615 12.3262 68.3215 11.9194C68.0816 11.5022 67.9617 11.0119 67.9617 10.4486C67.9617 10.3861 67.9617 10.3235 67.9617 10.2609C67.9721 10.1983 67.9773 10.1514 67.9773 10.1201H70.027C70.027 10.1409 70.0218 10.1827 70.0113 10.2452C70.0113 10.2974 70.0113 10.3443 70.0113 10.3861C70.0113 10.7303 70.1104 11.0276 70.3086 11.2779C70.5068 11.5178 70.7937 11.7056 71.1692 11.8412C71.5447 11.9663 71.988 12.0289 72.4991 12.0289C72.8433 12.0289 73.1458 12.0081 73.4066 11.9663C73.6778 11.9246 73.9073 11.8672 74.095 11.7942C74.2932 11.7108 74.4549 11.6169 74.58 11.5126C74.7052 11.3978 74.7939 11.2727 74.846 11.1371C74.9086 11.0015 74.9399 10.8554 74.9399 10.699C74.9399 10.3965 74.846 10.1461 74.6583 9.94796C74.4705 9.74977 74.215 9.58288 73.8916 9.44728C73.5787 9.31168 73.2188 9.19172 72.812 9.08742C72.4156 8.97268 72.0036 8.85794 71.576 8.7432C71.1587 8.62846 70.7467 8.49286 70.3399 8.33639C69.9435 8.1695 69.5837 7.97132 69.2603 7.74184C68.9474 7.51236 68.6971 7.22551 68.5093 6.88129C68.3215 6.52664 68.2277 6.1042 68.2277 5.61395C68.2277 5.11327 68.332 4.67517 68.5406 4.29966C68.7596 3.92415 69.0621 3.61644 69.4481 3.37653C69.8444 3.12619 70.3034 2.94365 70.8249 2.82891C71.3465 2.70374 71.915 2.64116 72.5304 2.64116C73.1041 2.64116 73.6413 2.70374 74.142 2.82891C74.6531 2.94365 75.1016 3.13141 75.4875 3.39218C75.8735 3.64252 76.176 3.96587 76.395 4.36225C76.6141 4.74819 76.7236 5.21236 76.7236 5.75476V5.94252H74.7052V5.78606C74.7052 5.48356 74.6113 5.228 74.4236 5.01939C74.2463 4.81077 73.9907 4.64909 73.6569 4.53435C73.3336 4.41962 72.9528 4.36225 72.5147 4.36225C72.0454 4.36225 71.6438 4.40918 71.31 4.50306C70.9762 4.58651 70.7206 4.71689 70.5433 4.89422C70.366 5.06111 70.2773 5.26973 70.2773 5.52007C70.2773 5.78084 70.3712 5.99989 70.559 6.17721C70.7467 6.35454 70.9971 6.50578 71.31 6.63095C71.6333 6.75612 71.9932 6.87086 72.3896 6.97517C72.7964 7.07948 73.2084 7.19422 73.6256 7.31939C74.0533 7.43413 74.4653 7.56973 74.8617 7.72619C75.2685 7.88265 75.6284 8.08084 75.9413 8.32075C76.2646 8.55023 76.5202 8.83708 76.7079 9.18129C76.8957 9.52551 76.9896 9.93753 76.9896 10.4173C76.9896 11.2205 76.7914 11.8672 76.395 12.3575C76.0091 12.8477 75.4719 13.2024 74.7834 13.4214C74.1054 13.6405 73.3283 13.75 72.4522 13.75Z" fill="#036603"/>
<path d="M82.5595 13.75C81.6833 13.75 80.9532 13.5988 80.369 13.2963C79.7849 12.9833 79.3468 12.5087 79.0548 11.8724C78.7627 11.2362 78.6167 10.4278 78.6167 9.44728C78.6167 8.45635 78.7627 7.64796 79.0548 7.02211C79.3468 6.38583 79.7849 5.91644 80.369 5.61395C80.9532 5.30102 81.6833 5.14456 82.5595 5.14456C83.3523 5.14456 84.0146 5.2958 84.5466 5.5983C85.089 5.89036 85.4958 6.3441 85.767 6.95952C86.0382 7.57494 86.1738 8.3729 86.1738 9.3534V9.91667H80.5724C80.5933 10.4278 80.6715 10.8607 80.8071 11.2153C80.9427 11.5595 81.1514 11.8203 81.433 11.9976C81.725 12.1645 82.1058 12.248 82.5752 12.248C82.8151 12.248 83.0393 12.2167 83.248 12.1541C83.4566 12.0915 83.6391 11.9976 83.7956 11.8724C83.952 11.7368 84.072 11.57 84.1554 11.3718C84.2493 11.1736 84.2963 10.9441 84.2963 10.6833H86.1738C86.1738 11.2049 86.0799 11.6586 85.8922 12.0446C85.7148 12.4305 85.4593 12.7486 85.1255 12.999C84.8021 13.2493 84.4214 13.4371 83.9833 13.5622C83.5452 13.6874 83.0706 13.75 82.5595 13.75ZM80.6037 8.57109H84.1867C84.1867 8.22687 84.145 7.93481 84.0616 7.6949C83.9885 7.45499 83.879 7.2568 83.733 7.10034C83.5974 6.94388 83.4305 6.83435 83.2323 6.77177C83.0341 6.69875 82.8099 6.66225 82.5595 6.66225C82.1527 6.66225 81.8085 6.73005 81.5269 6.86565C81.2557 7.00125 81.047 7.20986 80.901 7.4915C80.755 7.77313 80.6559 8.13299 80.6037 8.57109Z" fill="#036603"/>
<path d="M91.6429 13.75C90.7667 13.75 90.0366 13.5988 89.4524 13.2963C88.8683 12.9833 88.4302 12.5087 88.1381 11.8724C87.8461 11.2362 87.7 10.4278 87.7 9.44728C87.7 8.45635 87.8461 7.64796 88.1381 7.02211C88.4302 6.38583 88.8683 5.91644 89.4524 5.61395C90.0366 5.30102 90.7667 5.14456 91.6429 5.14456C92.4356 5.14456 93.098 5.2958 93.63 5.5983C94.1724 5.89036 94.5792 6.3441 94.8504 6.95952C95.1216 7.57494 95.2572 8.3729 95.2572 9.3534V9.91667H89.6558C89.6767 10.4278 89.7549 10.8607 89.8905 11.2153C90.0261 11.5595 90.2347 11.8203 90.5164 11.9976C90.8084 12.1645 91.1892 12.248 91.6586 12.248C91.8985 12.248 92.1227 12.2167 92.3313 12.1541C92.54 12.0915 92.7225 11.9976 92.879 11.8724C93.0354 11.7368 93.1554 11.57 93.2388 11.3718C93.3327 11.1736 93.3796 10.9441 93.3796 10.6833H95.2572C95.2572 11.2049 95.1633 11.6586 94.9756 12.0446C94.7982 12.4305 94.5427 12.7486 94.2089 12.999C93.8855 13.2493 93.5048 13.4371 93.0667 13.5622C92.6286 13.6874 92.154 13.75 91.6429 13.75ZM89.6871 8.57109H93.2701C93.2701 8.22687 93.2284 7.93481 93.1449 7.6949C93.0719 7.45499 92.9624 7.2568 92.8164 7.10034C92.6808 6.94388 92.5139 6.83435 92.3157 6.77177C92.1175 6.69875 91.8932 6.66225 91.6429 6.66225C91.2361 6.66225 90.8919 6.73005 90.6103 6.86565C90.3391 7.00125 90.1304 7.20986 89.9844 7.4915C89.8384 7.77313 89.7393 8.13299 89.6871 8.57109Z" fill="#036603"/>
<path d="M97.1902 13.5622V5.33231H98.7862L98.9426 6.63095H99.0521C99.1564 6.37018 99.2816 6.13027 99.4277 5.91122C99.5841 5.68175 99.7823 5.49921 100.022 5.36361C100.262 5.21757 100.554 5.14456 100.898 5.14456C101.065 5.14456 101.217 5.1602 101.352 5.1915C101.498 5.22279 101.608 5.25408 101.681 5.28537V7.08469H101.102C100.778 7.08469 100.492 7.13163 100.241 7.22551C99.9909 7.30896 99.7771 7.44456 99.5998 7.63231C99.4329 7.82007 99.3077 8.05476 99.2243 8.33639C99.1408 8.61803 99.0991 8.9466 99.0991 9.32211V13.5622H97.1902Z" fill="#036603"/>
</svg>
